# xmcd
#
# Track frame offsets:
#	150
#	14827
#	27806
#	40557
#	53268
#	63880
#	73195
#	87630
#	102544
#	119225
#	137140
#	156880
#	175655
#	192385
#	208206
#	224204
#
# Disc length: 3164 seconds
#
# Revision: 1
# Processed by: cddbd v1.5.2PL0 Copyright (c) Steve Scherf et al.
# Submitted via: EasyCDDAExtractor 10.0.5.1
#
DISCID=f70c5a10
DTITLE=Various Artist - Country Party CD 2
DYEAR=2006
DGENRE=Country
TTITLE0=wenche - banks of the ohio
TTITLE1=maarten - from a jack to a king
TTITLE2=tamra rosanes - when will i be loved
TTITLE3=henning stærk and the jordanaires - a cry a lot
TTITLE4=kirsten siggaard - san antonio rose
TTITLE5=kin schwarts - if i could make a living (out of loving you)
TTITLE6=dr hook feat ray sawyer - always crying over you
TTITLE7=april - turn turn turn
TTITLE8=smokie - mexican girl (us version)
TTITLE9=country lise - i have a crush on you
TTITLE10=johnny logan - on the other side of midnight
TTITLE11=kandis and heidi hauge - whose beds have your boots been under
TTITLE12=mckinleys - reach for the shadows
TTITLE13=tony sherridan and the jordanaires - brother sun
TTITLE14=mean abilene - make a little lovin' (on little white lies)
TTITLE15=maarten - roese are red (my love)
EXTD=
EXTT0=
EXTT1=
EXTT2=
EXTT3=
EXTT4=
EXTT5=
EXTT6=
EXTT7=
EXTT8=
EXTT9=
EXTT10=
EXTT11=
EXTT12=
EXTT13=
EXTT14=
EXTT15=
PLAYORDER=
